Coordinates
version=1
nRows=16
nColumns=22
inDegrees=yes

Units are S.I. units (second, meters, Newtons, ...)
If the header above contains a line with 'inDegrees', this indicates whether rotational values are in degrees (yes) or radians (no).

endheader
time	pelvis_tilt	pelvis_list	pelvis_rotation	pelvis_tx	pelvis_ty	pelvis_tz	hip_flexion_r	hip_adduction_r	hip_rotation_r	knee_angle_r	ankle_angle_r	subtalar_angle_r	hip_flexion_l	hip_adduction_l	hip_rotation_l	knee_angle_l	ankle_angle_l	subtalar_angle_l	lumbar_extension	lumbar_bending	lumbar_rotation
      5.63000000	     -3.37914181	     -0.05552490	   -157.93445601	      0.47769340	      0.92384923	      0.74434528	      2.20260075	     11.39956520	      3.64049984	    -14.93234174	      4.32719716	    -11.36156337	     20.57427462	    -14.39730008	     -9.46641229	    -50.10489582	      1.80967376	      3.59943646	     -9.44539545	     -1.55648535	      2.38293615
      5.64000000	     -3.30202677	      0.15344740	   -159.02269470	      0.47290319	      0.92366903	      0.74643696	      1.93227368	     11.49903315	      4.62428387	    -15.01544578	      4.58172385	    -11.19864907	     20.65919179	    -14.72442298	     -9.82742957	    -47.46121155	      2.11369208	      3.35503448	     -9.34728278	     -1.47339651	      2.83472783
      5.65000000	     -3.28071375	      0.29808495	   -160.07240536	      0.46812767	      0.92357501	      0.74863626	      1.57288182	     11.54102046	      5.59995120	    -15.08908438	      4.84502032	    -10.95646000	     20.57510905	    -14.94896416	    -10.20455319	    -44.66825514	      2.26400767	      3.11835928	     -9.34121225	     -1.41716271	      3.18453399
      5.66000000	     -3.18586606	      0.47994551	   -161.10787573	      0.46342502	      0.92324987	      0.75085246	      1.35769875	     11.58758997	      6.54007529	    -15.26517620	      5.15891207	    -10.75857675	     20.53660968	    -15.13878708	    -10.57019466	    -41.81120366	      2.31780948	      3.11872079	     -9.24998881	     -1.33977827	      3.52394794
      5.67000000	     -3.07225250	      0.65999579	   -162.11137731	      0.45877519	      0.92282174	      0.75315922	      1.19082870	     11.61776636	      7.44565319	    -15.49633853	      5.49719526	    -10.56621523	     20.46932186	    -15.26365873	    -10.90439149	    -38.88772754	      2.28920849	      3.28498783	     -9.14723574	     -1.24884130	      3.80653350
      5.68000000	     -2.89119067	      0.85566779	   -163.08227946	      0.45416533	      0.92219810	      0.75551529	      1.14339204	     11.64163965	      8.29793506	    -15.80935000	      5.87447419	    -10.41711795	     20.44922803	    -15.34038922	    -11.21411302	    -35.93884260	      2.20573154	      3.52951960	     -8.96914841	     -1.15197445	      4.03317098
      5.69000000	     -2.76802085	      1.02813023	   -163.99181800	      0.44949430	      0.92162999	      0.75803005	      0.99821837	     11.64690612	      9.09705253	    -16.06528874	      6.24263945	    -10.20408697	     20.31086623	    -15.35174215	    -11.45919968	    -32.93290529	      2.11273057	      4.03348085	     -8.85499248	     -1.04013776	      4.19610228
      5.70000000	     -2.59025793	      1.21114054	   -164.85856873	      0.44484692	      0.92090625	      0.76063440	      0.94979575	     11.64412786	      9.82710894	    -16.38652514	      6.63882896	    -10.01939005	     20.21746845	    -15.31927633	    -11.66949039	    -29.94266500	      2.02298573	      4.57740345	     -8.67939318	     -0.91697361	      4.29768770
      5.71000000	     -2.40251926	      1.39076451	   -165.67386624	      0.44016812	      0.92011881	      0.76334365	      0.91911830	     11.63017883	     10.48258404	    -16.72036564	      7.05431849	     -9.82891744	     20.11188093	    -15.24570397	    -11.85012424	    -26.97139081	      1.94663801	      5.20512087	     -8.48997464	     -0.78931676	      4.35347617
      5.72000000	     -2.18370352	      1.55569482	   -166.45243449	      0.43548709	      0.91924671	      0.76617032	      0.94482418	     11.58702099	     11.05878571	    -17.10479744	      7.51331325	     -9.65253142	     20.02003156	    -15.12389893	    -12.04027156	    -24.05767347	      1.85551319	      5.82078346	     -8.26775952	     -0.66828973	      4.37432346
      5.73000000	     -2.01481386	      1.72179084	   -167.16129589	      0.43072119	      0.91842213	      0.76915253	      0.87770178	     11.54571933	     11.59275547	    -17.40788599	      7.92725914	     -9.40614023	     19.85945052	    -14.98031896	    -12.18035430	    -21.20432314	      1.79434168	      6.76234683	     -8.09072118	     -0.51634561	      4.32987948
      5.74000000	     -1.82420829	      1.87258740	   -167.84456267	      0.42592646	      0.91752876	      0.77221582	      0.85173586	     11.47715255	     12.05099649	    -17.75223374	      8.38724290	     -9.17077211	     19.71767623	    -14.80747235	    -12.37312509	    -18.48667669	      1.69184611	      7.70785365	     -7.88912536	     -0.37995161	      4.28478680
      5.75000000	     -1.64401760	      2.00804836	   -168.49858047	      0.42108824	      0.91661983	      0.77536111	      0.81477869	     11.38947838	     12.46841037	    -18.10457572	      8.85743381	     -8.92173898	     19.57040697	    -14.61369464	    -12.60410013	    -15.94722848	      1.55204512	      8.75902466	     -7.69903744	     -0.24895527	      4.21737155
      5.76000000	     -1.48120501	      2.13360318	   -169.12396749	      0.41617581	      0.91571097	      0.77859465	      0.73968352	     11.28701859	     12.87422370	    -18.42668554	      9.32180932	     -8.65818082	     19.42619757	    -14.40984673	    -12.85875981	    -13.64463592	      1.39228413	      9.90939459	     -7.52138939	     -0.11399418	      4.12634739
      5.77000000	     -1.34171277	      2.24693495	   -169.73679813	      0.41119860	      0.91480882	      0.78185641	      0.63526243	     11.17250235	     13.25702121	    -18.74963087	      9.78809176	     -8.39076955	     19.28877676	    -14.20819956	    -13.15377535	    -11.63466518	      1.23210668	     11.09312961	     -7.36751903	      0.01206210	      4.04980039
      5.78000000	     -1.22615753	      2.34308201	   -170.34898717	      0.40616525	      0.91392032	      0.78512079	      0.50934694	     11.04346231	     13.62607809	    -19.09208208	     10.24458373	     -8.13097924	     19.16646983	    -14.01355867	    -13.47314758	     -9.97197817	      1.09013912	     12.23169734	     -7.24276304	      0.12254596	      3.99449530
